# xmcd
#
# Track frame offsets: 
#        150
#        12802
#        27723
#        40820
#        54474
#        63194
#        74648
#        87975
#        98381
#        111214
#        122142
#        131696
#
# Disc length: 1895 seconds
#
# Revision: 0
# Processed by: cddbd v1.5.2PL0 Copyright (c) Steve Scherf et al.
# Submitted via: ExactAudioCopy v1.0b4
#
DISCID=a107650c
DTITLE=Houseshakers, The - Demolition Rock ‎(LP)
DYEAR=1972
DGENRE=Blues
TTITLE0=Sea Cruise
TTITLE1=Miss Froggie
TTITLE2=Baby Blue
TTITLE3=Henrietta
TTITLE4=Lights Out
TTITLE5=Red Hot
TTITLE6=Bye Bye Johnny
TTITLE7=Flying Saucers Rock 'N' Roll
TTITLE8=Honey Hush
TTITLE9=Wild Cat
TTITLE10=My Way
TTITLE11=Brand New Cadillac
EXTD=
EXTT0=
EXTT1=
EXTT2=
EXTT3=
EXTT4=
EXTT5=
EXTT6=
EXTT7=
EXTT8=
EXTT9=
EXTT10=
EXTT11=
PLAYORDER=
